<svg xmlns="http://www.w3.org/2000/svg" width="581" height="586" fill="none"><ellipse cx="291.5" cy="292.5" fill="url(#a)" rx="282.5" ry="283.5" style="fill:url(#a)"/><path fill="#add1b6" stroke="#add1b6" stroke-width=".333" d="M450.483 111.095c-2.335-12.033-3.312-24.686.524-36.528-.286 12.176-.333 24.328-.524 36.528z"/><path fill="#5dab77" stroke="#5dab77" stroke-width=".333" d="M425.368 143.335c-18.181-12.891-19.825-40.722-6.291-57.355 6.005 50.111 60.333 77.728 66.195 128.672-.477 9.127-.81 18.348-.405 27.498-1.454 8.483-3.741 16.799-5.576 25.234-2.311 5.314-4.956 10.508-8.197 15.321a347.13 347.13 0 0 0-2.883-8.84c-.667-6.29-.477-12.581-2.121-18.681-7.053-28.379-22.446-56.854-50.801-68.482-20.516-8.602-31.56-28.141-43.784-45.369-3.353-4.83-1.381-6.983 3.074-5.051 40.913 18.848 83.505 46.584 95.729 92.953 1.167 8.412.19 17.442 3.931 25.282.167-7.458 1.144-14.678.572-22.065 1.073-36.433-21.135-68.363-49.443-89.117z"/><path fill="#56a873" stroke="#56a873" stroke-width=".333" d="M525.088 158.204c6.338-5.028 6.195 6.004 8.792 9.769 1.287 3.622 2.669 7.22 3.67 10.937 1.859 9.312 1.773 18.532-.286 27.498-5.218 35.861-39.912 54.733-60.833 81.135-1.954-6.315 3.455-11.2 5.885-16.489 13.225-19.111 14.226-42.963 18.991-65.004 3.956-17.847 20.326-29.832 23.781-47.846z"/><path fill="#58a873" stroke="#58a873" stroke-width=".333" d="M46.265 253.223c1.453-3.741 2.835-7.482 4.265-11.223 4.408 11.7 13.01 20.802 20.635 30.452 9.627 14.655 4.17 33.384 2.955 49.611l-1.859-.954c-8.697-23.113-33.049-40.341-25.996-67.886Z"/><path fill="#5dab77" d="M485.273 214.652c1.811 9.079 1.787 18.443-.405 27.498-.405-9.15-.071-18.371.405-27.498z"/><path fill="#377c80" stroke="#377c80" stroke-width=".333" d="M427.061 226.996c19.92 13.653 33.86 36.671 28.26 61.738-2.859 6.458-6.195 12.867-6.862 20.016 4.718-3.431 7.505-8.674 9.721-13.94 2.955-6.362 5.886-12.771 7.983-19.491l2.049-1.453a344.557 344.557 0 0 1 2.883 8.84 496.27 496.27 0 0 0-3.86 8.792c-15.488 25.091-33.931 48.324-57.116 66.791-.643-.644-1.882-1.978-2.502-2.622 12.319-12.366 6.672-31.667 6.91-46.941.167-9.341 11.819-1.882 17.562-2.74-.334 6.147-1.907 31.048 4.741 15.012 19.277-30.62-8.768-62.43-9.769-94.002z"/><path fill="#397e7c" stroke="#397e7c" stroke-width=".333" d="M110 282.252c1.358-11.104 10.461-46.322 19.777-23.972 1.733 4.327 1.616 12.884-.715 17.109-.238 1.096-.691 3.264-.929 4.337-6.195 13.963-6.505 29.213-6.981 44.201-5.838-7.72-7.554-17.585-9.389-26.878A3257.895 3257.895 0 0 1 110 282.252z"/><path fill="#5dab77" d="M466.09 255.184c1.644 6.1 1.454 12.391 2.121 18.681l-2.049 1.454a945.642 945.642 0 0 1-.072-20.135z"/><path fill="#559e7d" stroke="#559e7d" stroke-width=".333" d="M402.291 273.234c-8.447-28.975-1.299-32.55 13.892-11.104 6.862 11.032 13.117 25.913 16.525 38.423-.143 1.358-.477 4.074-.62 5.433-5.743.857-17.394-6.601-17.561 2.74a763.392 763.392 0 0 0-3.432-11.176c-1.143-7.648-6.04-17.168-8.804-24.316z"/><path fill="#5fa879" stroke="#5fa879" stroke-width=".333" d="M140.686 287.464c5.242-5.361 10.604-10.627 16.322-15.464.286 24.853-17.704 43.748-26.687 65.575-6.076-17.8.619-35.385 10.365-50.111z"/><path fill="#5baa79" stroke="#5baa79" stroke-width=".333" d="M27 287c13.916 8.054 27.712 18.3 36.338 32.144 3.288 13.01 12.319 23.233 17.371 35.409C58.334 336.038 29.669 319.335 27 287ZM82.185 242c9.286 13.125 17.549 28.193 19.612 44.374-2.439 13.195 1.503 26.253 1.014 39.427-12.61-26.162-31.692-53.302-20.626-83.801Z"/><path fill="#67a780" stroke="#67a780" stroke-width=".333" d="M372.112 281.919c14.821 6.719 21.708 23.542 31.954 35.361-1.668 10.055.834 34.932-8.626 33.669 1.835-25.472-17.418-45.369-23.328-69.03z"/><path fill="#3b8082" stroke="#3b8082" stroke-width=".333" d="M540.078 287.924c1.048-.239 3.121-.763 4.17-1.001-26.688 37.696-71.413 51.635-112.564 66.719 15.655-16.942 31.262-34.48 50.301-47.728 17.966-9.722 38.863-11.652 58.093-17.99z"/><path fill="#377c80" d="M448.457 308.75c.667-7.149 4.003-13.559 6.862-20.016.715 1.525 2.145 4.551 2.86 6.076-2.216 5.266-5.004 10.508-9.722 13.94z"/><path fill="#7fb497" stroke="#7fb497" stroke-width=".333" d="M89.681 295c8.84 18.133 18.229 35.957 28.356 53.446-12.558-10.389-21.898-24.185-29.214-38.601-1.906-4.909-.024-9.96.858-14.845z"/><path fill="#377c80" d="M432.708 300.553c1.882 6.719 2.716 13.558 4.122 20.444-6.648 16.037-5.075-8.864-4.742-15.011.143-1.359.477-4.075.62-5.433z"/><path fill="#00c7e5" stroke="#00c7e5" stroke-width=".333" d="M142.768 331.148c51.659-21.04 95.669 26.211 112.683 70.365-8.912 7.863-15.226-17.49-17.037-4.956-16.68-37.506-52.803-67.625-95.646-65.409z"/><path fill="#458383" stroke="#458383" stroke-width=".333" d="M34 341c16.989 2.192 36.814 5.838 46.608 21.564-3.789.501-11.366 1.478-15.155 1.978C53.301 360.706 38.623 353.796 34 341Z"/><path fill="#56a078" stroke="#56a078" stroke-width=".333" d="M461.658 358.503c11.89-13.487 29.523-19.659 46.918-13.964-7.101 6.505-14.559 13.32-23.638 16.871-7.911-.262-15.893.119-23.28-2.907z"/><path fill="#00c7e5" stroke="#00c7e5" stroke-width=".333" d="M122.679 349.519c42.867-15.345 86.735 8.936 103.867 48.967-6.505 4.766-20.707 11.033-12.986 20.635 5.266 11.962-4.623-1-6.958-5.575-12.486-30.858-50.802-44.106-82.564-38.197-6.434-.31-30.572 7.411-13.559 7.125-13.153 6.838-27.95 3.836-41.151-1.12 14.94-14.631 33.836-24.71 53.351-31.835z"/><path fill="url(#b)" stroke="#1a6774" stroke-width=".333" d="M561.5 367.5c4.789 1.715 4.907-3.779 4.287 2.559-30.833 102.247-117.449 190.125-224.771 207.448-3.145-.405-6.362-.143-9.173 1.406l-5.052 1.048c-3.884-.453-7.863-.31-11.485 1.215-1.811.31-5.409.882-7.196 1.168-12.772-.024-25.496 0-38.244 0-1.787-.286-5.362-.858-7.173-1.144-3.598-1.549-7.553-1.739-11.389-1.215-110.611-15.917-207.949-102.413-236.9-210.402 2.907-2.836-.955-1.085 3.596 1.417 4.789 15.179 18.04 23.674 25.808 37.565 2.145-1.691 4.146-3.574 6.148-5.432 11.819 9.888 28.498 5.147 41.747 11.532-3.574 2.598-7.149 5.171-10.628 7.888-4.17 3.073-7.958 6.957-9.483 12.057 4.432-2.788 8.506-6.053 12.653-9.222 21.635-14.749 52.85-14.44 73.009 2.812 26.116 22.684 41.651 55.21 69.483 76.178 17.776 17.8 40.865 28.856 64.026 37.959 5.599 2.644 11.604 4.694 17.919 4.193-5.385-3.312-11.533-4.884-17.514-6.648-22.684-8.959-42.581-23.232-61.31-38.601-9.793-10.961-18.395-22.852-25.544-35.671 30.167-7.125 59.047 6.314 86.33 17.537 4.098 2.598 7.434-2.12 10.913-3.693 12.534 5.814 25.734 10.056 39.293 12.772 12.914 2.621 26.425 2.955 39.388.31 17.704-2.169 33.716-10.651 45.297-24.162 3.169-3.145 5.885-6.696 8.53-10.294 11.533 15.107 32.835-17.561 36.958-6.338-4.647 20.85-20.302 36.886-36.219 50.134-30 18.515-64.956 26.283-100.078 23.543 29.285 8.149 71.913-.691 100.316-21.136 24.257-13.248 39.34-39.841 42.581-66.862 18.395 4.385 36.457-5.075 51.564-14.535 11.485-19.515 25.236-33.941 32.313-55.386z" style="fill:url(#b)"/><path fill="#00c7e5" d="M384.265 389.479c13.749-12.319 31.072-19.92 49.396-22.327 11.885-1.816 23.815-2.231 35.718-.047 14.178 3.479 27.021 11.27 37.267 21.636-4.98 4.408-10.984 7.291-16.608 10.722 1.954 4.003 4.313 7.816 6.195 11.891-6.957-2.121-9.316-10.032-14.797-14.226-5.885.477-11.056 4.48-16.656 6.338-23.756-28.712-60.857-13.82-90.308-4.336 3.05-3.432 6.529-6.434 9.793-9.651z"/><path fill="#0967bf" stroke="#398a96" stroke-width=".333" d="M110.48 382.474c12.033-5.457 25.782-2.144 38.506-3.336 23.018 2.812 42.652 17.419 57.616 34.408-13.82 11.08-30.405 2.311-45.011 1.644-21.374-12.629-47.847-10.627-69.888-.524-13.248-6.386-29.928-1.644-41.747-11.533 4.837-8.578 12.51-14.94 19.372-21.779 13.201 4.956 27.998 7.959 41.152 1.12z"/><path fill="#338591" d="M490.038 399.463c5.624-3.431 11.628-6.314 16.608-10.722 9.794 9.674 15.846 22.279 22.542 34.145-15.107 9.46-33.169 18.92-51.564 14.536-.405-4.337-.596-8.722-2.002-12.868-2.335-7.625-6.529-14.463-10.842-21.088 5.6-1.858 10.771-5.861 16.656-6.338 5.481 4.194 7.84 12.105 14.797 14.226-1.882-4.075-4.241-7.887-6.195-11.891z"/><path fill="#0f64c2" fill-opacity=".65" d="M490.038 399.463c5.624-3.431 11.628-6.314 16.608-10.722 9.794 9.674 15.846 22.279 22.542 34.145-15.107 9.46-33.169 18.92-51.564 14.536-.405-4.337-.596-8.722-2.002-12.868-2.335-7.625-6.529-14.463-10.842-21.088 5.6-1.858 10.771-5.861 16.656-6.338 5.481 4.194 7.84 12.105 14.797 14.226-1.882-4.075-4.241-7.887-6.195-11.891z"/><path stroke="#398a96" stroke-width=".333" d="M490.038 399.463c5.624-3.431 11.628-6.314 16.608-10.722 9.794 9.674 15.846 22.279 22.542 34.145-15.107 9.46-33.169 18.92-51.564 14.536-.405-4.337-.596-8.722-2.002-12.868-2.335-7.625-6.529-14.463-10.842-21.088 5.6-1.858 10.771-5.861 16.656-6.338 5.481 4.194 7.84 12.105 14.797 14.226-1.882-4.075-4.241-7.887-6.195-11.891z"/><path fill="#3d8c98" d="M238.412 396.556c1.811-12.533 8.125 12.82 17.037 4.957 26.187 46.321 100.626 66.194 141.444 28.593a375.026 375.026 0 0 1 5.719-4.622c11.318 7.72 21.302-14.321 31.429-3.265 7.744 16.323-1.144 30.762-11.58 42.986-24.71 22.851-61.644 26.521-92.978 16.942-43.224-10.58-71.317-48.228-91.071-85.591z"/><path fill="#0f64c2" fill-opacity=".65" d="M238.412 396.556c1.811-12.533 8.125 12.82 17.037 4.957 26.187 46.321 100.626 66.194 141.444 28.593a375.026 375.026 0 0 1 5.719-4.622c11.318 7.72 21.302-14.321 31.429-3.265 7.744 16.323-1.144 30.762-11.58 42.986-24.71 22.851-61.644 26.521-92.978 16.942-43.224-10.58-71.317-48.228-91.071-85.591z"/><path fill="#0967bf" d="M403.495 401.512c18.776-10.317 44.916-7.387 59.403 8.793-8.887 2.573-18.133 5.028-26.115 9.793-.691.548-2.049 1.597-2.74 2.121-10.127-11.056-20.111 10.985-31.43 3.264 7.53-15.631-3.074-5.885-9.007 1.501-39.173 24.972-98.505 13.511-126.217-23.589 17.323 8.625 34.693 17.823 54.375 19.801 12.153 2.383 24.758 2.669 36.934.095 16.537-3.288 29.904-14.559 44.797-21.779z"/><path fill="#338591" d="M213.56 419.121c-7.72-9.602 6.481-15.869 12.986-20.635 19.396 31.573 40.079 64.67 75.011 80.968-3.479 1.573-6.815 6.291-10.913 3.694-27.283-11.223-56.163-24.662-86.329-17.538-12.296-18.371-22.47-39.221-42.724-50.42 14.606.667 31.191 9.436 45.011-1.644 2.335 4.575 12.224 17.537 6.958 5.575z"/><path fill="#0f64c2" fill-opacity=".65" d="M213.56 419.121c-7.72-9.602 6.481-15.869 12.986-20.635 19.396 31.573 40.079 64.67 75.011 80.968-3.479 1.573-6.815 6.291-10.913 3.694-27.283-11.223-56.163-24.662-86.329-17.538-12.296-18.371-22.47-39.221-42.724-50.42 14.606.667 31.191 9.436 45.011-1.644 2.335 4.575 12.224 17.537 6.958 5.575z"/><path stroke="#2f7c8a" stroke-width=".333" d="M213.56 419.121c-7.72-9.602 6.481-15.869 12.986-20.635 19.396 31.573 40.079 64.67 75.011 80.968-3.479 1.573-6.815 6.291-10.913 3.694-27.283-11.223-56.163-24.662-86.329-17.538-12.296-18.371-22.47-39.221-42.724-50.42 14.606.667 31.191 9.436 45.011-1.644 2.335 4.575 12.224 17.537 6.958 5.575z"/><path fill="#338591" d="M436.783 420.099c7.982-4.766 17.228-7.22 26.115-9.794a62.194 62.194 0 0 1 10.771 24.853c-.691 5.528-1.597 11.08-2.645 16.584-4.122-11.223-25.425 21.446-36.958 6.339 6.863-11.748 9.198-25.616 2.717-37.982z"/><path fill="#0f64c2" fill-opacity=".65" d="M436.783 420.099c7.982-4.766 17.228-7.22 26.115-9.794a62.194 62.194 0 0 1 10.771 24.853c-.691 5.528-1.597 11.08-2.645 16.584-4.122-11.223-25.425 21.446-36.958 6.339 6.863-11.748 9.198-25.616 2.717-37.982z"/><path stroke="#338591" stroke-width=".333" d="M436.783 420.099c7.982-4.766 17.228-7.22 26.115-9.794a62.194 62.194 0 0 1 10.771 24.853c-.691 5.528-1.597 11.08-2.645 16.584-4.122-11.223-25.425 21.446-36.958 6.339 6.863-11.748 9.198-25.616 2.717-37.982z"/><path fill="#00c7e5" d="M119.749 453.362c22.994 27.689 46.107 57.14 76.655 76.703-33.407-14.392-60.714-44.725-76.655-76.703z"/><path stroke="url(#c)" stroke-width="12" d="M290.5 6C447.577 6 575 134.446 575 293S447.577 580 290.5 580 6 451.554 6 293 133.423 6 290.5 6Z" style="stroke:url(#c)"/><path fill="#5dab77" d="M522.706 7.824c-25.448 9.317-49.682 25.306-64.407 48.538-1.787 3.813-3.384 7.72-5.028 11.581a135.727 135.727 0 0 0-2.264 6.624c-3.67 11.989-3.916 24.147-.524 36.528 2.907 12.891 6.243 25.902 12.581 37.601l4.408 11.867c.668 1.382 1.978 4.146 2.645 5.528l4.218-25.163c2.168-14.988 6.005-29.809 12.367-43.605 1.382-4.432 2.597-8.912 3.765-13.416 5.313-27.116 13.748-54.9 32.239-76.083z"/><path fill="#01c7e5" d="M29.419 64.239c29.139 28.206 60.362 54.155 89.109 82.843-3.808 5.829 5.394 16.359-7.403 17.042-15.203-9.268-42.26-24.476-56.259-15.535-.797 1.1-2.36 3.338-3.126 4.476l-2.69-.81c3.699-30.819-15.463-51.442-19.631-88.016Z"/><path fill="#01c7e5" d="M62.731 115.435c8.521 3.891 18.807 7.397 23.84 15.938-8.524-3.131-20.716-6.611-23.84-15.938z"/><path fill="#000" fill-opacity=".2" d="M62.731 115.435c8.521 3.891 18.807 7.397 23.84 15.938-8.524-3.131-20.716-6.611-23.84-15.938z"/><path fill="#01c7e5" d="M86.573 131.373c10.937 1.77 19.247 11.488 25.803 19.655-15.583-1.659-30.163-6.578-43.782-14.692-.383-9.412 25.454 12.425 17.979-4.963z"/><path fill="#000" fill-opacity=".2" d="M86.573 131.373c10.937 1.77 19.247 11.488 25.803 19.655-15.583-1.659-30.163-6.578-43.782-14.692-.383-9.412 25.454 12.425 17.979-4.963z"/><path fill="url(#d)" d="M186.095 92.289c40.589 7.537 78.079 25.434 110.223 51.159 26.94 9.903 51.85 24.767 72.494 44.829h.001c10.24 11.251 32.378 25.437 25.709 41.684-7.429 1.713-6.784 7.655-.571 10.704-21.896 15.937-47.667 26.419-74.736 28.751-16.987.733-36.678-11.177-52.626-2.838-20.124 16.936-46.981 19.945-71.985 24.204 5.164-12.066 18.251-21.613 17.334-35.573-18.69-22.055-43.086-38.323-65.799-55.919-7.502-6.942-18.581-11.942-28.287-5.568-29.627 13.193-58.156 29.397-90.061 36.734-3.385 1.026-6.755 2.261-9.834 4.078-1.945 1.164-5.799 3.495-7.744 4.659.287-1.564.865-4.726 1.153-6.29 10.21-10.928 18.005-23.747 26.798-35.778 13.276.816 25.814-5.495 39.083-3.884-15.977 9.374-37.411 10.652-48.875 26.753 31.048-8.872 59.7-24.891 90.916-33.712-17.224-16.38-48.811-10.57-72.468-9.919.18-1.886.609-5.651.788-7.537 22.036.752 43.7 5.758 65.743 6.787-9.973-23.126-61.824 5.453-61.611-22.549a210.625 210.625 0 0 1 3.126-4.476c17.762 8.197 36.755 13.641 56.26 15.536 12.796-.683 3.594-11.213 7.402-17.043 4.262 3.555 8.6 7.048 12.938 10.541 3.104 5.173 10.935 6.127 14.044.369l2.976-.719h.001c15.217-4.673 32.72-6.463 44.576-17.96 14.698-14.098 8.728-36.393-6.968-47.023zm135.71 100.943.137.02-.137-.02zm-118.36-13.97.544.119-.544-.119zm-18.563-4.924a161.66 161.66 0 0 0-1.233-.397zm-28.897-12.467zm-6.774-4.125z" style="fill:url(#d)"/><path fill="url(#e)" d="M186.094 92.289c40.589 7.537 78.08 25.435 110.224 51.16 1.171 10.809-24.478-8.009-24.478-8.009s-10.288-3.047-27.622-7.95c-7.197 3.058 8.234 14.396-4.231 13.262-11.406-1.038-5.333-4.267-15.025-8.935-7.197 3.057.53 13.723-9.648 11.724-7.914-1.554-1.37-7.714-8.978-10.11-10.261 13.891-20.17 16.319-37.176 18.529 14.923-5.553 9.38-2.991 23.902-12.648 14.698-14.097 8.729-36.393-6.968-47.023z" style="fill:url(#e)"/><path fill="#02c2df" d="m49.05 152.255 2.69.81c-.213 28.003 51.638-.577 61.611 22.55-22.043-1.029-43.708-6.035-65.743-6.787.458-5.526.984-11.046 1.442-16.573z"/><path fill="#000" fill-opacity=".2" d="m49.05 152.255 2.69.81c-.213 28.003 51.638-.577 61.611 22.55-22.043-1.029-43.708-6.035-65.743-6.787.458-5.526.984-11.046 1.442-16.573z"/><path fill="url(#f)" d="M46.822 176.364c23.657-.651 55.243-6.461 72.467 9.919-31.216 8.821-59.867 24.841-90.915 33.712 11.464-16.101 32.897-17.379 48.875-26.753-13.27-1.611-25.807 4.701-39.084 3.885.725-1.073 2.241-3.177 3-4.247 16.047-2.483 31.538-7.475 47.092-12.047-14.035-.473-28.063-.669-42.067-1.104z" style="fill:url(#f)"/><path fill="#000" fill-opacity=".2" d="M46.822 176.364c23.657-.651 55.243-6.461 72.467 9.919-31.216 8.821-59.867 24.841-90.915 33.712 11.464-16.101 32.897-17.379 48.875-26.753-13.27-1.611-25.807 4.701-39.084 3.885.725-1.073 2.241-3.177 3-4.247 16.047-2.483 31.538-7.475 47.092-12.047-14.035-.473-28.063-.669-42.067-1.104z"/><path fill="#cbf5f9" d="M346.257 202.042c14.43-4.748 22.456 22.829 6.921 24.289-14.775 2.57-22.216-19.174-6.921-24.289z"/><path fill="#0f2528" stroke="#1a2d30" stroke-width=".333" d="M348.878 209.038c8.402-2.486 12.622 10.579 4.188 13.407-8.433 2.448-12.622-10.579-4.188-13.407z"/><path fill="url(#g)" d="M296.982 211.944c-5.099 14.287 10.546 35.256 26.241 46.266-20.091-1.915-37.426-28.374-26.241-46.266z" style="fill:url(#g)"/><path fill="#fff" fill-opacity=".5" d="M296.982 211.944c-5.099 14.287 10.546 35.256 26.241 46.266-20.091-1.915-37.426-28.374-26.241-46.266z"/><path fill="#375559" d="M393.952 240.667c-6.213-3.049-6.858-8.992.571-10.705 5.324 3.309 6.717 9.012-.571 10.705z"/><defs><linearGradient id="b" x1="438" x2="438.119" y1="504.5" y2="677.344" gradientTransform="translate(-148 -95)" gradientUnits="userSpaceOnUse"><stop stop-color="#005F8F"/><stop offset="1" stop-color="#7A49A4"/></linearGradient><linearGradient id="c" x1="438.5" x2="438.5" y1="95" y2="681" gradientTransform="translate(-148 -95)" gradientUnits="userSpaceOnUse"><stop offset=".077" stop-color="#FF7106"/><stop offset=".274" stop-color="#52CA7A"/><stop offset=".548" stop-color="#0067C6"/><stop offset=".976" stop-color="#7A49A4"/></linearGradient><linearGradient id="d" x1="354.979" x2="344.317" y1="267.538" y2="381.309" gradientTransform="translate(-148 -95)" gradientUnits="userSpaceOnUse"><stop stop-color="#00C7E5"/><stop offset=".486" stop-color="#0CA1B8"/><stop offset=".891" stop-color="#1D6976"/></linearGradient><linearGradient id="e" x1="375.624" x2="369.029" y1="191.248" y2="260.419" gradientTransform="translate(-148 -95)" gradientUnits="userSpaceOnUse"><stop stop-color="#FC7109"/><stop offset="1" stop-color="#FFD4B4"/></linearGradient><linearGradient id="f" x1="224.617" x2="219.829" y1="268.927" y2="319.138" gradientTransform="translate(-148 -95)" gradientUnits="userSpaceOnUse"><stop stop-color="#03BDDA"/><stop offset="1" stop-color="#1191A5"/></linearGradient><linearGradient id="g" x1="458.963" x2="454.828" y1="308.277" y2="351.647" gradientTransform="translate(-148 -95)" gradientUnits="userSpaceOnUse"><stop stop-color="#05B7D2"/><stop offset="1" stop-color="#158597"/></linearGradient><radialGradient id="a" cx="0" cy="0" r="1" gradientTransform="matrix(56.29743 828.61373 -1020.9064 69.36213 267.155 257.381)" gradientUnits="userSpaceOnUse"><stop stop-color="#fff"/><stop offset="1" stop-color="#72DDED"/></radialGradient></defs></svg>