<svg width="860" height="834" viewBox="0 0 860 834" fill="none" xmlns="http://www.w3.org/2000/svg">
    <ellipse cx="439.5" cy="387.5" rx="282.5" ry="283.5" fill="url(#paint0_radial_310_1592)" />
    <path
        d="M598.483 206.095C596.148 194.062 595.171 181.409 599.007 169.567C598.721 181.743 598.674 193.895 598.483 206.095Z"
        fill="#ADD1B6" stroke="#ADD1B6" stroke-width="0.333333" />
    <path
        d="M573.368 238.335C555.187 225.444 553.543 197.613 567.077 180.98C573.082 231.091 627.41 258.708 633.272 309.652C632.795 318.779 632.462 328 632.867 337.15C631.413 345.633 629.126 353.949 627.291 362.384C624.98 367.698 622.335 372.892 619.094 377.705C618.165 374.727 617.212 371.796 616.211 368.865C615.544 362.575 615.734 356.284 614.09 350.184C607.037 321.805 591.644 293.33 563.289 281.702C542.773 273.1 531.729 253.561 519.505 236.333C516.152 231.503 518.124 229.35 522.579 231.282C563.492 250.13 606.084 277.866 618.308 324.235C619.475 332.647 618.498 341.677 622.239 349.517C622.406 342.059 623.383 334.839 622.811 327.452C623.884 291.019 601.676 259.089 573.368 238.335Z"
        fill="#5DAB77" stroke="#5DAB77" stroke-width="0.333333" />
    <path
        d="M673.088 253.204C679.426 248.176 679.283 259.208 681.88 262.973C683.167 266.595 684.549 270.193 685.55 273.91C687.409 283.222 687.323 292.442 685.264 301.408C680.046 337.269 645.352 356.141 624.431 382.543C622.477 376.228 627.886 371.343 630.316 366.054C643.541 346.943 644.542 323.091 649.307 301.05C653.263 283.203 669.633 271.218 673.088 253.204Z"
        fill="#56A873" stroke="#56A873" stroke-width="0.333333" />
    <path
        d="M194.265 348.223C195.718 344.482 197.1 340.741 198.53 337C202.938 348.7 211.54 357.802 219.165 367.452C228.792 382.107 223.335 400.836 222.12 417.063L220.261 416.109C211.564 392.996 187.212 375.768 194.265 348.223Z"
        fill="#58A873" stroke="#58A873" stroke-width="0.333333" />
    <path
        d="M633.273 309.652C635.084 318.731 635.06 328.095 632.868 337.15C632.463 328 632.797 318.779 633.273 309.652Z"
        fill="#5DAB77" />
    <path
        d="M575.061 321.996C594.981 335.649 608.921 358.667 603.321 383.734C600.462 390.192 597.126 396.601 596.459 403.75C601.177 400.319 603.964 395.076 606.18 389.81C609.135 383.448 612.066 377.039 614.163 370.319L616.212 368.866C617.213 371.796 618.166 374.727 619.095 377.706C617.785 380.613 616.498 383.544 615.235 386.498C599.747 411.589 581.304 434.822 558.119 453.289C557.476 452.645 556.237 451.311 555.617 450.667C567.936 438.301 562.289 419 562.527 403.726C562.694 394.385 574.346 401.844 580.089 400.986C579.755 407.133 578.182 432.034 584.83 415.998C604.107 385.378 576.062 353.568 575.061 321.996Z"
        fill="#377C80" stroke="#377C80" stroke-width="0.333333" />
    <path
        d="M258 377.252C259.358 366.148 268.461 330.93 277.777 353.28C279.51 357.607 279.393 366.164 277.062 370.389C276.824 371.485 276.371 373.653 276.133 374.726C269.938 388.689 269.628 403.939 269.152 418.927C263.314 411.207 261.598 401.342 259.763 392.049C259.311 388.355 258.429 380.945 258 377.252Z"
        fill="#397E7C" stroke="#397E7C" stroke-width="0.333333" />
    <path
        d="M614.09 350.184C615.734 356.284 615.544 362.575 616.211 368.865L614.162 370.319C614.066 363.599 614.043 356.88 614.09 350.184Z"
        fill="#5DAB77" />
    <path
        d="M550.291 368.234C541.844 339.259 548.992 335.684 564.183 357.13C571.045 368.162 577.3 383.043 580.708 395.553C580.565 396.911 580.231 399.627 580.088 400.986C574.345 401.843 562.694 394.385 562.527 403.726C561.407 399.985 560.263 396.244 559.095 392.55C557.952 384.902 553.055 375.382 550.291 368.234Z"
        fill="#559E7D" stroke="#559E7D" stroke-width="0.333333" />
    <path
        d="M288.686 382.464C293.928 377.103 299.29 371.837 305.008 367C305.294 391.853 287.304 410.748 278.321 432.575C272.245 414.775 278.94 397.19 288.686 382.464Z"
        fill="#5FA879" stroke="#5FA879" stroke-width="0.333333" />
    <path
        d="M175 382C188.916 390.054 202.712 400.3 211.338 414.144C214.626 427.154 223.657 437.377 228.709 449.553C206.334 431.038 177.669 414.335 175 382Z"
        fill="#5BAA79" stroke="#5BAA79" stroke-width="0.333333" />
    <path
        d="M230.185 337C239.471 350.125 247.734 365.193 249.797 381.374C247.358 394.569 251.3 407.627 250.811 420.801C238.201 394.639 219.119 367.499 230.185 337Z"
        fill="#5BAA79" stroke="#5BAA79" stroke-width="0.333333" />
    <path
        d="M520.112 376.919C534.933 383.638 541.82 400.461 552.066 412.28C550.398 422.335 552.9 447.212 543.44 445.949C545.275 420.477 526.022 400.58 520.112 376.919Z"
        fill="#67A780" stroke="#67A780" stroke-width="0.333333" />
    <path
        d="M688.078 382.924C689.126 382.685 691.199 382.161 692.248 381.923C665.56 419.619 620.835 433.558 579.684 448.642C595.339 431.7 610.946 414.162 629.985 400.914C647.951 391.192 668.848 389.262 688.078 382.924Z"
        fill="#3B8082" stroke="#3B8082" stroke-width="0.333333" />
    <path
        d="M596.457 403.75C597.124 396.601 600.46 390.191 603.319 383.734C604.034 385.259 605.464 388.285 606.179 389.81C603.963 395.076 601.175 400.318 596.457 403.75Z"
        fill="#377C80" />
    <path
        d="M237.681 390C246.521 408.133 255.91 425.957 266.037 443.446C253.479 433.057 244.139 419.261 236.823 404.845C234.917 399.936 236.799 394.885 237.681 390Z"
        fill="#7FB497" stroke="#7FB497" stroke-width="0.333333" />
    <path
        d="M580.708 395.553C582.59 402.272 583.424 409.111 584.83 415.997C578.182 432.034 579.755 407.133 580.088 400.986C580.231 399.627 580.565 396.911 580.708 395.553Z"
        fill="#377C80" />
    <path
        d="M290.768 426.148C342.427 405.108 386.437 452.359 403.451 496.513C394.539 504.376 388.225 479.023 386.414 491.557C369.734 454.051 333.611 423.932 290.768 426.148Z"
        fill="#00C7E5" stroke="#00C7E5" stroke-width="0.333333" />
    <path
        d="M182 436C198.989 438.192 218.814 441.838 228.608 457.564C224.819 458.065 217.242 459.042 213.453 459.542C201.301 455.706 186.623 448.796 182 436Z"
        fill="#458383" stroke="#458383" stroke-width="0.333333" />
    <path
        d="M609.658 453.503C621.548 440.016 639.181 433.844 656.576 439.539C649.475 446.044 642.017 452.859 632.938 456.41C625.027 456.148 617.045 456.529 609.658 453.503Z"
        fill="#56A078" stroke="#56A078" stroke-width="0.333333" />
    <path
        d="M270.679 444.519C313.546 429.174 357.414 453.455 374.546 493.486C368.041 498.252 353.839 504.519 361.56 514.121C366.826 526.083 356.937 513.121 354.602 508.546C342.116 477.688 303.8 464.44 272.038 470.349C265.604 470.039 241.466 477.76 258.479 477.474C245.326 484.312 230.529 481.31 217.328 476.354C232.268 461.723 251.164 451.644 270.679 444.519Z"
        fill="#00C7E5" stroke="#00C7E5" stroke-width="0.333333" />
    <path
        d="M709.5 462.5C714.289 464.215 714.407 458.721 713.787 465.059C682.954 567.306 596.338 655.184 489.016 672.507C485.871 672.102 482.654 672.364 479.843 673.913C478.58 674.175 476.054 674.699 474.791 674.961C470.907 674.508 466.928 674.651 463.306 676.176C461.495 676.486 457.897 677.058 456.11 677.344C443.338 677.32 430.614 677.344 417.866 677.344C416.079 677.058 412.504 676.486 410.693 676.2C407.095 674.651 403.14 674.461 399.304 674.985C288.693 659.068 191.355 572.572 162.404 464.583C165.311 461.747 161.449 463.498 166 466C170.789 481.179 184.04 489.674 191.808 503.565C193.953 501.874 195.954 499.991 197.956 498.133C209.775 508.021 226.454 503.28 239.703 509.665C236.129 512.263 232.554 514.836 229.075 517.553C224.905 520.626 221.117 524.51 219.592 529.61C224.024 526.822 228.098 523.557 232.245 520.388C253.88 505.639 285.095 505.948 305.254 523.2C331.37 545.884 346.905 578.41 374.737 599.378C392.513 617.178 415.602 628.234 438.763 637.337C444.362 639.981 450.367 642.031 456.682 641.53C451.297 638.218 445.149 636.646 439.168 634.882C416.484 625.923 396.587 611.65 377.858 596.281C368.065 585.32 359.463 573.429 352.314 560.61C382.481 553.485 411.361 566.924 438.644 578.147C442.742 580.745 446.078 576.027 449.557 574.454C462.091 580.268 475.291 584.51 488.85 587.226C501.764 589.847 515.275 590.181 528.238 587.536C545.942 585.367 561.954 576.885 573.535 563.374C576.704 560.229 579.42 556.678 582.065 553.08C593.598 568.187 614.9 535.519 619.023 546.742C614.376 567.592 598.721 583.628 582.804 596.876C552.804 615.391 517.848 623.159 482.726 620.419C512.011 628.568 554.639 619.728 583.042 599.283C607.299 586.035 622.382 559.442 625.623 532.421C644.018 536.806 662.08 527.346 677.187 517.886C688.672 498.371 702.423 483.945 709.5 462.5Z"
        fill="url(#paint1_linear_310_1592)" stroke="#1A6774" stroke-width="0.333333" />
    <path
        d="M532.265 484.479C546.014 472.16 563.337 464.559 581.661 462.152C593.546 460.336 605.476 459.921 617.379 462.105C631.557 465.584 644.4 473.375 654.646 483.741C649.666 488.149 643.662 491.032 638.038 494.463C639.992 498.466 642.351 502.279 644.233 506.354C637.276 504.233 634.917 496.322 629.436 492.128C623.551 492.605 618.38 496.608 612.78 498.466C589.024 469.754 551.923 484.646 522.472 494.13C525.522 490.698 529.001 487.696 532.265 484.479Z"
        fill="#00C7E5" />
    <path
        d="M258.48 477.474C270.513 472.017 284.262 475.33 296.986 474.138C320.004 476.95 339.638 491.557 354.602 508.546C340.782 519.626 324.197 510.857 309.591 510.19C288.217 497.561 261.744 499.563 239.703 509.666C226.455 503.28 209.775 508.022 197.956 498.133C202.793 489.555 210.466 483.193 217.328 476.354C230.529 481.31 245.326 484.313 258.48 477.474Z"
        fill="#0967BF" stroke="#398A96" stroke-width="0.333333" />
    <path
        d="M638.038 494.463C643.662 491.032 649.666 488.149 654.646 483.741C664.44 493.415 670.492 506.02 677.188 517.886C662.081 527.346 644.019 536.806 625.624 532.422C625.219 528.085 625.028 523.7 623.622 519.554C621.287 511.929 617.093 505.091 612.78 498.466C618.38 496.608 623.551 492.605 629.436 492.128C634.917 496.322 637.276 504.233 644.233 506.354C642.351 502.279 639.992 498.467 638.038 494.463Z"
        fill="#338591" />
    <path
        d="M638.038 494.463C643.662 491.032 649.666 488.149 654.646 483.741C664.44 493.415 670.492 506.02 677.188 517.886C662.081 527.346 644.019 536.806 625.624 532.422C625.219 528.085 625.028 523.7 623.622 519.554C621.287 511.929 617.093 505.091 612.78 498.466C618.38 496.608 623.551 492.605 629.436 492.128C634.917 496.322 637.276 504.233 644.233 506.354C642.351 502.279 639.992 498.467 638.038 494.463Z"
        fill="#0F64C2" fill-opacity="0.65" />
    <path
        d="M638.038 494.463C643.662 491.032 649.666 488.149 654.646 483.741C664.44 493.415 670.492 506.02 677.188 517.886C662.081 527.346 644.019 536.806 625.624 532.422C625.219 528.085 625.028 523.7 623.622 519.554C621.287 511.929 617.093 505.091 612.78 498.466C618.38 496.608 623.551 492.605 629.436 492.128C634.917 496.322 637.276 504.233 644.233 506.354C642.351 502.279 639.992 498.467 638.038 494.463Z"
        stroke="#398A96" stroke-width="0.333333" />
    <path
        d="M386.412 491.556C388.223 479.023 394.537 504.376 403.449 496.513C429.636 542.834 504.075 562.707 544.893 525.106C546.775 523.558 548.682 522.009 550.612 520.484C561.93 528.204 571.914 506.163 582.041 517.219C589.785 533.542 580.897 547.981 570.461 560.205C545.751 583.056 508.817 586.726 477.483 577.147C434.259 566.567 406.166 528.919 386.412 491.556Z"
        fill="#3D8C98" />
    <path
        d="M386.412 491.556C388.223 479.023 394.537 504.376 403.449 496.513C429.636 542.834 504.075 562.707 544.893 525.106C546.775 523.558 548.682 522.009 550.612 520.484C561.93 528.204 571.914 506.163 582.041 517.219C589.785 533.542 580.897 547.981 570.461 560.205C545.751 583.056 508.817 586.726 477.483 577.147C434.259 566.567 406.166 528.919 386.412 491.556Z"
        fill="#0F64C2" fill-opacity="0.65" />
    <path
        d="M551.495 496.512C570.271 486.195 596.411 489.125 610.898 505.305C602.011 507.878 592.765 510.333 584.783 515.098C584.092 515.646 582.734 516.695 582.043 517.219C571.916 506.163 561.932 528.204 550.613 520.483C558.143 504.852 547.539 514.598 541.606 521.984C502.433 546.956 443.101 535.495 415.389 498.395C432.712 507.02 450.082 516.218 469.764 518.196C481.917 520.579 494.522 520.865 506.698 518.291C523.235 515.003 536.602 503.732 551.495 496.512Z"
        fill="#0967BF" />
    <path
        d="M361.56 514.121C353.84 504.519 368.041 498.252 374.546 493.486C393.942 525.059 414.625 558.156 449.557 574.454C446.078 576.027 442.742 580.745 438.644 578.148C411.361 566.925 382.481 553.486 352.315 560.61C340.019 542.239 329.845 521.389 309.591 510.19C324.197 510.857 340.782 519.626 354.602 508.546C356.937 513.121 366.826 526.083 361.56 514.121Z"
        fill="#338591" />
    <path
        d="M361.56 514.121C353.84 504.519 368.041 498.252 374.546 493.486C393.942 525.059 414.625 558.156 449.557 574.454C446.078 576.027 442.742 580.745 438.644 578.148C411.361 566.925 382.481 553.486 352.315 560.61C340.019 542.239 329.845 521.389 309.591 510.19C324.197 510.857 340.782 519.626 354.602 508.546C356.937 513.121 366.826 526.083 361.56 514.121Z"
        fill="#0F64C2" fill-opacity="0.65" />
    <path
        d="M361.56 514.121C353.84 504.519 368.041 498.252 374.546 493.486C393.942 525.059 414.625 558.156 449.557 574.454C446.078 576.027 442.742 580.745 438.644 578.148C411.361 566.925 382.481 553.486 352.315 560.61C340.019 542.239 329.845 521.389 309.591 510.19C324.197 510.857 340.782 519.626 354.602 508.546C356.937 513.121 366.826 526.083 361.56 514.121Z"
        stroke="#2F7C8A" stroke-width="0.333333" />
    <path
        d="M584.783 515.099C592.765 510.333 602.011 507.879 610.898 505.305C616.26 512.668 619.953 521.199 621.669 530.158C620.978 535.686 620.072 541.238 619.024 546.742C614.902 535.519 593.599 568.188 582.066 553.081C588.929 541.333 591.264 527.465 584.783 515.099Z"
        fill="#338591" />
    <path
        d="M584.783 515.099C592.765 510.333 602.011 507.879 610.898 505.305C616.26 512.668 619.953 521.199 621.669 530.158C620.978 535.686 620.072 541.238 619.024 546.742C614.902 535.519 593.599 568.188 582.066 553.081C588.929 541.333 591.264 527.465 584.783 515.099Z"
        fill="#0F64C2" fill-opacity="0.65" />
    <path
        d="M584.783 515.099C592.765 510.333 602.011 507.879 610.898 505.305C616.26 512.668 619.953 521.199 621.669 530.158C620.978 535.686 620.072 541.238 619.024 546.742C614.902 535.519 593.599 568.188 582.066 553.081C588.929 541.333 591.264 527.465 584.783 515.099Z"
        stroke="#338591" stroke-width="0.333333" />
    <path
        d="M267.749 548.362C290.743 576.051 313.856 605.502 344.404 625.065C310.997 610.673 283.69 580.34 267.749 548.362Z"
        fill="#00C7E5" />
    <path
        d="M438.5 101C595.577 101 723 229.446 723 388C723 546.554 595.577 675 438.5 675C281.423 675 154 546.554 154 388C154 229.446 281.423 101 438.5 101Z"
        stroke="url(#paint2_linear_310_1592)" stroke-width="12" />
    <path
        d="M670.706 102.824C645.258 112.141 621.024 128.13 606.299 151.362C604.512 155.175 602.915 159.082 601.271 162.943C600.461 165.135 599.698 167.351 599.007 169.567C595.337 181.556 595.091 193.714 598.483 206.095C601.39 218.986 604.726 231.997 611.064 243.696L615.472 255.563C616.14 256.945 617.45 259.709 618.117 261.091L622.335 235.928C624.503 220.94 628.34 206.119 634.702 192.323C636.084 187.891 637.299 183.411 638.467 178.907C643.78 151.791 652.215 124.007 670.706 102.824Z"
        fill="#5DAB77" />
    <path
        d="M177.419 159.239C206.558 187.445 237.781 213.394 266.528 242.082C262.72 247.911 271.922 258.441 259.125 259.124C243.922 249.856 216.865 234.648 202.866 243.589C202.069 244.689 200.506 246.927 199.74 248.065L197.05 247.255C200.749 216.436 181.587 195.813 177.419 159.239Z"
        fill="#01C7E5" />
    <path
        d="M210.731 210.435C219.252 214.326 229.538 217.832 234.571 226.373C226.047 223.242 213.855 219.762 210.731 210.435Z"
        fill="#01C7E5" />
    <path
        d="M210.731 210.435C219.252 214.326 229.538 217.832 234.571 226.373C226.047 223.242 213.855 219.762 210.731 210.435Z"
        fill="black" fill-opacity="0.2" />
    <path
        d="M234.573 226.373C245.51 228.143 253.82 237.861 260.376 246.028C244.793 244.369 230.213 239.45 216.594 231.336C216.211 221.924 242.048 243.761 234.573 226.373Z"
        fill="#01C7E5" />
    <path
        d="M234.573 226.373C245.51 228.143 253.82 237.861 260.376 246.028C244.793 244.369 230.213 239.45 216.594 231.336C216.211 221.924 242.048 243.761 234.573 226.373Z"
        fill="black" fill-opacity="0.2" />
    <path
        d="M334.095 187.289C374.684 194.826 412.174 212.723 444.318 238.448C471.258 248.351 496.168 263.215 516.812 283.277L516.813 283.277C527.053 294.528 549.191 308.714 542.522 324.961C535.093 326.674 535.738 332.616 541.951 335.665C520.055 351.602 494.284 362.084 467.215 364.416C450.228 365.149 430.537 353.239 414.589 361.578C394.465 378.514 367.608 381.523 342.604 385.782C347.768 373.716 360.855 364.169 359.938 350.209C341.248 328.154 316.852 311.886 294.139 294.29C286.637 287.348 275.558 282.348 265.852 288.722C236.225 301.915 207.696 318.119 175.791 325.456C172.406 326.482 169.036 327.717 165.957 329.534C164.012 330.698 160.158 333.029 158.213 334.193C158.5 332.629 159.078 329.467 159.366 327.903C169.576 316.975 177.371 304.156 186.164 292.125C199.44 292.941 211.978 286.63 225.247 288.241C209.27 297.615 187.836 298.893 176.372 314.994C207.42 306.122 236.072 290.103 267.288 281.282C250.064 264.902 218.477 270.712 194.82 271.363C195 269.477 195.429 265.712 195.608 263.826C217.644 264.578 239.308 269.584 261.351 270.613C251.378 247.487 199.527 276.066 199.74 248.064C200.506 246.926 202.069 244.688 202.866 243.588C220.628 251.785 239.621 257.229 259.126 259.124C271.922 258.441 262.72 247.911 266.528 242.081C270.79 245.636 275.128 249.129 279.466 252.622C282.57 257.795 290.401 258.749 293.51 252.991L296.486 252.272L296.487 252.272C311.704 247.599 329.207 245.809 341.063 234.312C355.761 220.214 349.791 197.919 334.095 187.289ZM469.805 288.232C469.851 288.238 469.896 288.245 469.942 288.252C469.896 288.245 469.851 288.238 469.805 288.232ZM351.445 274.262C351.626 274.302 351.808 274.341 351.989 274.381C351.808 274.341 351.626 274.302 351.445 274.262ZM332.882 269.338C333.293 269.469 333.705 269.599 334.118 269.727C333.293 269.471 332.47 269.209 331.649 268.941L332.882 269.338ZM303.985 256.871C304.505 257.166 305.025 257.459 305.547 257.747C305.025 257.459 304.505 257.166 303.985 256.871ZM297.211 252.746C297.671 253.046 298.131 253.344 298.594 253.637C298.131 253.344 297.671 253.046 297.211 252.746Z"
        fill="url(#paint3_linear_310_1592)" />
    <path
        d="M334.094 187.289C374.683 194.826 412.174 212.724 444.318 238.449C445.489 249.258 419.84 230.44 419.84 230.44C419.84 230.44 409.552 227.393 392.218 222.49C385.021 225.548 400.452 236.886 387.987 235.752C376.581 234.714 382.654 231.485 372.962 226.817C365.765 229.874 373.492 240.54 363.314 238.541C355.4 236.987 361.944 230.827 354.336 228.431C344.075 242.322 334.166 244.75 317.16 246.96C332.083 241.407 326.54 243.969 341.062 234.312C355.76 220.215 349.791 197.919 334.094 187.289Z"
        fill="url(#paint4_linear_310_1592)" />
    <path
        d="M197.05 247.255L199.74 248.065C199.527 276.068 251.378 247.488 261.351 270.615C239.308 269.586 217.643 264.58 195.608 263.828C196.066 258.302 196.592 252.782 197.05 247.255Z"
        fill="#02C2DF" />
    <path
        d="M197.05 247.255L199.74 248.065C199.527 276.068 251.378 247.488 261.351 270.615C239.308 269.586 217.643 264.58 195.608 263.828C196.066 258.302 196.592 252.782 197.05 247.255Z"
        fill="black" fill-opacity="0.2" />
    <path
        d="M194.822 271.364C218.479 270.713 250.065 264.903 267.289 281.283C236.073 290.104 207.422 306.124 176.374 314.995C187.838 298.894 209.271 297.616 225.249 288.242C211.979 286.631 199.442 292.943 186.165 292.127C186.89 291.054 188.406 288.95 189.165 287.88C205.212 285.397 220.703 280.405 236.257 275.833C222.222 275.36 208.194 275.164 194.19 274.729L194.822 271.364Z"
        fill="url(#paint5_linear_310_1592)" />
    <path
        d="M194.822 271.364C218.479 270.713 250.065 264.903 267.289 281.283C236.073 290.104 207.422 306.124 176.374 314.995C187.838 298.894 209.271 297.616 225.249 288.242C211.979 286.631 199.442 292.943 186.165 292.127C186.89 291.054 188.406 288.95 189.165 287.88C205.212 285.397 220.703 280.405 236.257 275.833C222.222 275.36 208.194 275.164 194.19 274.729L194.822 271.364Z"
        fill="black" fill-opacity="0.2" />
    <path
        d="M494.257 297.042C508.687 292.294 516.713 319.871 501.178 321.331C486.403 323.901 478.962 302.157 494.257 297.042Z"
        fill="#CBF5F9" />
    <path
        d="M496.878 304.038C505.28 301.552 509.5 314.617 501.066 317.445C492.633 319.893 488.444 306.866 496.878 304.038Z"
        fill="#0F2528" stroke="#1A2D30" stroke-width="0.333333" />
    <path
        d="M444.982 306.944C439.883 321.231 455.528 342.2 471.223 353.21C451.132 351.295 433.797 324.836 444.982 306.944Z"
        fill="url(#paint6_linear_310_1592)" />
    <path
        d="M444.982 306.944C439.883 321.231 455.528 342.2 471.223 353.21C451.132 351.295 433.797 324.836 444.982 306.944Z"
        fill="white" fill-opacity="0.5" />
    <path
        d="M541.952 335.667C535.739 332.618 535.094 326.675 542.523 324.962C547.847 328.271 549.24 333.974 541.952 335.667Z"
        fill="#375559" />
    <defs>
        <radialGradient id="paint0_radial_310_1592" cx="0" cy="0" r="1"
            gradientUnits="userSpaceOnUse"
            gradientTransform="translate(415.155 352.381) rotate(86.1132) scale(830.524 1023.26)">
            <stop stop-color="white" />
            <stop offset="1" stop-color="#72DDED" />
        </radialGradient>
        <linearGradient id="paint1_linear_310_1592" x1="438" y1="504.5" x2="438.119" y2="677.344"
            gradientUnits="userSpaceOnUse">
            <stop stop-color="#005F8F" />
            <stop offset="1" stop-color="#7A49A4" />
        </linearGradient>
        <linearGradient id="paint2_linear_310_1592" x1="438.5" y1="95" x2="438.5" y2="681"
            gradientUnits="userSpaceOnUse">
            <stop offset="0.0766824" stop-color="#FF7106" />
            <stop offset="0.274038" stop-color="#52CA7A" />
            <stop offset="0.548077" stop-color="#0067C6" />
            <stop offset="0.975962" stop-color="#7A49A4" />
        </linearGradient>
        <linearGradient id="paint3_linear_310_1592" x1="354.979" y1="267.538" x2="344.317"
            y2="381.309" gradientUnits="userSpaceOnUse">
            <stop stop-color="#00C7E5" />
            <stop offset="0.485744" stop-color="#0CA1B8" />
            <stop offset="0.891438" stop-color="#1D6976" />
        </linearGradient>
        <linearGradient id="paint4_linear_310_1592" x1="375.624" y1="191.248" x2="369.029"
            y2="260.419" gradientUnits="userSpaceOnUse">
            <stop stop-color="#FC7109" />
            <stop offset="1" stop-color="#FFD4B4" />
        </linearGradient>
        <linearGradient id="paint5_linear_310_1592" x1="224.617" y1="268.927" x2="219.829"
            y2="319.138" gradientUnits="userSpaceOnUse">
            <stop stop-color="#03BDDA" />
            <stop offset="1" stop-color="#1191A5" />
        </linearGradient>
        <linearGradient id="paint6_linear_310_1592" x1="458.963" y1="308.277" x2="454.828"
            y2="351.647" gradientUnits="userSpaceOnUse">
            <stop stop-color="#05B7D2" />
            <stop offset="1" stop-color="#158597" />
        </linearGradient>
    </defs>
</svg>