<svg width="18" height="10" viewBox="0 0 18 10" fill="none" xmlns="http://www.w3.org/2000/svg">
<path d="M8.91115 6.42344L15.0987 1.06094C15.3344 0.863603 15.6502 0.754409 15.9779 0.756877C16.3056 0.759345 16.6192 0.873278 16.8509 1.07414C17.0827 1.275 17.2141 1.54671 17.217 1.83076C17.2198 2.1148 17.0938 2.38845 16.8662 2.59277L9.7949 8.72119C9.56049 8.92428 9.24261 9.03838 8.91115 9.03838C8.5797 9.03838 8.26181 8.92428 8.0274 8.72119L0.956152 2.59277C0.728455 2.38845 0.602461 2.1148 0.605309 1.83076C0.608156 1.54671 0.739618 1.275 0.971378 1.07414C1.20314 0.873278 1.51665 0.759345 1.8444 0.756877C2.17215 0.754409 2.4879 0.863603 2.72365 1.06094L8.91115 6.42344Z" fill="#E8EDFF"/>
</svg>
